<svg width="53" height="47" viewBox="0 0 53 47" fill="none" xmlns="http://www.w3.org/2000/svg">
<path d="M52.1384 24.7884L40.5827 19.8361V6.65896C40.5827 6.12755 40.2378 5.64359 39.6968 5.41548L27.1714 0.133585C26.7478 -0.0450516 26.256 -0.0443172 25.8333 0.135513L13.4114 5.41741C12.88 5.6435 12.5312 6.12681 12.5302 6.65547C12.5302 6.65666 12.5301 6.65786 12.5301 6.65905V19.8064L0.882726 24.7878C0.353555 25.0142 0.00450134 25.4963 0.00450134 26.0281V40.04C0.00450134 40.5601 0.334923 41.0358 0.858814 41.2698L13.3596 46.8529C13.8328 47.0642 14.4538 47.0577 14.9416 46.7698L26.5031 41.5837L38.1987 46.8508C38.6712 47.0637 39.2895 47.0583 39.7772 46.7742L52.1585 41.271C52.6838 41.0376 52.9948 40.5612 52.9948 40.04V26.0281C52.9948 25.4998 52.671 25.0168 52.1384 24.7884ZM12.5299 43.3989L3.10996 39.1917V28.2633L12.5299 32.4705V43.3989ZM14.0565 30.0688L5.0691 26.0548L14.0794 22.201L23.0054 26.0545L14.0565 30.0688ZM24.9517 39.1935L15.6353 43.3725V32.4468L24.9517 28.2677V39.1935ZM24.9517 23.8273L15.6353 19.8094V8.90054L24.9517 13.0879V23.8273ZM17.5934 6.6932L26.5072 2.903L35.4685 6.68191L26.5055 10.6988L17.5934 6.6932ZM37.4771 8.86722V19.7792L28.0572 23.8301V13.089L37.4771 8.86722ZM37.3736 43.3906L28.0572 39.1949V28.2717L37.3736 32.4673V43.3906ZM38.9063 30.069L30.0093 26.0621L38.9956 22.2146L47.9467 26.0507L38.9063 30.069ZM49.9099 39.19L40.479 43.3818V32.4504L49.9099 28.2585V39.19Z" fill="#F78CB6"/>
</svg>
